<svg width="73" height="27" viewBox="0 0 73 27" fill="none" xmlns="http://www.w3.org/2000/svg">
<path d="M0.890625 26V23.68L13.4106 2.88H1.61062V0H20.0906V2.4L7.57063 23.12H20.0506V26H0.890625Z" fill="#262626"/>
<path d="M29.2259 26.44C26.2659 26.44 23.9593 25.6267 22.3059 24C20.6793 22.3467 19.8659 19.8 19.8659 16.36C19.8659 12.8933 20.6659 10.24 22.2659 8.4C23.8659 6.53333 26.0259 5.6 28.7459 5.6C31.2259 5.6 33.1459 6.38667 34.5059 7.96C35.8926 9.50667 36.5859 11.7333 36.5859 14.64C36.5859 15.3067 36.5326 15.8667 36.4259 16.32C36.3459 16.7733 36.2926 17.0533 36.2659 17.16H25.5059C25.5326 19.56 25.8793 21.2667 26.5459 22.28C27.2393 23.2667 28.3459 23.76 29.8659 23.76C30.7726 23.76 31.5726 23.5733 32.2659 23.2C32.9593 22.8 33.5059 22.3733 33.9059 21.92C34.3059 21.44 34.5059 21.1733 34.5059 21.12L36.3059 22.52C36.3059 22.6267 36.0259 23.0133 35.4659 23.68C34.9326 24.3467 34.1326 24.9733 33.0659 25.56C32.0259 26.1467 30.7459 26.44 29.2259 26.44ZM31.6259 14.56V13.64C31.6259 11.6133 31.4126 10.2 30.9859 9.4C30.5593 8.57333 29.8126 8.16 28.7459 8.16C27.9993 8.16 27.3993 8.34667 26.9459 8.72C26.5193 9.09333 26.1859 9.74667 25.9459 10.68C25.7059 11.5867 25.5593 12.88 25.5059 14.56H31.6259Z" fill="#262626"/>
<path d="M36.8512 6H41.1312L41.8112 7.64H41.9712C41.9712 7.58667 42.1846 7.38667 42.6112 7.04C43.0646 6.69333 43.7046 6.37333 44.5312 6.08C45.3579 5.76 46.3846 5.6 47.6112 5.6C49.6646 5.6 51.1979 6.16 52.2113 7.28C53.2513 8.37333 53.7712 10.0933 53.7712 12.44V26H48.4512V13.52C48.4512 11.7333 48.2513 10.52 47.8512 9.88C47.4779 9.24 46.7846 8.92 45.7712 8.92C45.0779 8.92 44.4646 9.02667 43.9312 9.24C43.3979 9.45333 42.9712 9.69333 42.6512 9.96C42.3312 10.2 42.1712 10.3333 42.1712 10.36V26H36.8512V6Z" fill="#262626"/>
<path d="M63.2547 26.44C60.268 26.44 57.9614 25.5333 56.3347 23.72C54.7347 21.9067 53.9347 19.3333 53.9347 16C53.9347 12.6667 54.7347 10.0933 56.3347 8.28C57.9614 6.46667 60.268 5.56 63.2547 5.56C66.268 5.56 68.5747 6.46667 70.1747 8.28C71.8014 10.0933 72.6147 12.6667 72.6147 16C72.6147 19.3067 71.7747 21.88 70.0947 23.72C68.4414 25.5333 66.1614 26.44 63.2547 26.44ZM63.2547 23.8C64.1347 23.8 64.828 23.5467 65.3347 23.04C65.868 22.5333 66.2547 21.72 66.4947 20.6C66.7347 19.48 66.8547 17.9467 66.8547 16C66.8547 14.0533 66.7347 12.52 66.4947 11.4C66.2547 10.28 65.8814 9.48 65.3747 9C64.868 8.49333 64.1614 8.24 63.2547 8.24C62.348 8.24 61.6414 8.49333 61.1347 9C60.628 9.48 60.2547 10.28 60.0147 11.4C59.7747 12.52 59.6547 14.04 59.6547 15.96C59.6547 17.9067 59.7747 19.4533 60.0147 20.6C60.2547 21.72 60.628 22.5333 61.1347 23.04C61.668 23.5467 62.3747 23.8 63.2547 23.8Z" fill="#262626"/>
</svg>
